#define full_thin_updated_big_outline_width 12
#define full_thin_updated_big_outline_height 12
static unsigned char full_thin_updated_big_outline_bits[] = {
   0xff, 0x0f, 0x01, 0x08, 0x01, 0x08, 0x01, 0x08, 0x01, 0x08, 0x01, 0x08,
   0x01, 0x08, 0x01, 0x08, 0x01, 0x08, 0x01, 0x08, 0x01, 0x08, 0xff, 0x0f };
