#define mtall_thin_updated_big_outline_width 12
#define mtall_thin_updated_big_outline_height 12
static unsigned char mtall_thin_updated_big_outline_bits[] = {
   0xff, 0x0f, 0x01, 0x08, 0x01, 0x08, 0x01, 0x08, 0x01, 0x08, 0xff, 0x0f,
   0x00, 0x00, 0xf7, 0x0e, 0x95, 0x0a, 0x95, 0x0a, 0x95, 0x0a, 0xf7, 0x0e };
